<svg id="Слой_1" data-name="Слой 1" xmlns="http://www.w3.org/2000/svg" viewBox="0 0 49.2 49.2"><defs><style>.cls-2{fill:#dcddde}</style></defs>
<path fill="none" d="M0 0h49.2v49.2H0z"/>
<path class="cls-2" d="M24.6 2.68A21.92 21.92 0 1 0 46.52 24.6 21.94 21.94 0 0 0 24.6 2.68zm0 42.23A20.32 20.32 0 1 1 44.92 24.6 20.34 20.34 0 0 1 24.6 44.92z"/>
<path class="cls-2" d="M36.53 38.2L24.6 27.85 12.67 38.2v-6.98L24.6 20.86l11.93 10.35v6.99z"/>
<path class="cls-2" d="M36.53 28.33L24.6 17.98 12.67 28.33v-6.97L24.6 11l11.93 10.35v6.98z"/>
</svg>