<svg id="Слой_1" data-name="Слой 1" xmlns="http://www.w3.org/2000/svg" viewBox="0 0 170.08 56.69"><defs><style>.cls-1{fill:#2cb34a}</style></defs><path class="cls-1" d="M80.06 15.29h9.96l-2.49-3.73h2.48l-4.97-7.47-4.98 7.47h2.49l-2.49 3.73z"/><path d="M8.38 20.77V21c0 .76-.05 2.06-.12 2.73a4.34 4.34 0 0 1-1 2.7 3.43 3.43 0 0 1-2.56.89c-.33 0-.36-.15-.41-.34l-.43-1.55A.3.3 0 0 1 4 25h.15a1.85 1.85 0 0 0 .85-.4 3.44 3.44 0 0 0 .64-2.47v-1.22H5.2c-.15 0-.24 0-.24-.22v-1.94c0-.21.12-.24.24-.24h7.43c.26 0 .22.1.22.29v5.77h.52c.15 0 .24 0 .24.22v2c0 .22-.09.22-.24.22H10c-.17 0-.26 0-.26-.22v-6zM22.32 26c.09.15.07.21-.12.33a6 6 0 0 1-3.36 1c-2.85 0-4.31-1.68-4.31-4.46s1.58-4.6 4.22-4.6 3.85 1.77 3.85 4.93c0 .26-.1.24-.33.24h-4.8c.1 1.2.58 1.67 1.44 1.67a4 4 0 0 0 2.21-.64c.22-.12.31-.07.41.12zm-2.61-4.43c-.07-1.12-.39-1.44-1.06-1.44s-1 .36-1.17 1.44zm11 4.43c.09.22.1.28-.05.45a4.81 4.81 0 0 1-3 .86c-2.73 0-4.17-1.73-4.17-4.4s1.61-4.67 4.45-4.67a3.69 3.69 0 0 1 2.58.76.44.44 0 0 1 .14.43v2.13c0 .19 0 .24-.22.24h-2.03c-.17 0-.22-.05-.22-.24v-1H28c-.94 0-1.39.6-1.39 2.33S27.14 25 28 25a4.78 4.78 0 0 0 1.65-.48c.29-.12.38-.19.5.1zm6.39-7.25c0-.22.17-.24.29-.24h3.31c.12 0 .24 0 .24.24v1.94c0 .19-.09.22-.24.22h-.52v3.67h.52c.19 0 .24.05.24.24v1.94c0 .22-.09.22-.24.22h-3.41c-.17 0-.19-.07-.19-.22v-3.05h-1.72v3.14c0 .15-.05.14-.17.14h-3.43c-.16 0-.24 0-.24-.22v-1.94c0-.19.05-.24.24-.24h.51v-3.68h-.51c-.16 0-.24 0-.24-.22v-1.94c0-.21.12-.24.24-.24h3.33c.15 0 .27 0 .27.24v2.76h1.72zm8.96 8.53c-2.75 0-4.21-1.8-4.21-4.55s1.51-4.52 4.22-4.52 4.17 1.84 4.17 4.55-1.52 4.52-4.18 4.52zm0-7c-.72 0-1.13.51-1.13 2.45s.41 2.42 1.13 2.42 1.15-.53 1.15-2.44-.44-2.4-1.21-2.4zm6.1 6.72c-.19 0-.24 0-.24-.24v-5.85h-.52c-.15 0-.24 0-.24-.22v-1.94c0-.21.12-.24.24-.24h3.12c.1 0 .17 0 .17.12v3.05c0 .5 0 1.15-.07 1.65h.05a14.8 14.8 0 0 1 1-2L57 18.87a.57.57 0 0 1 .53-.36h2.39c.14 0 .22 0 .22.21v5.85h.52c.15 0 .24 0 .24.22v2c0 .22-.09.22-.24.22h-3.13c-.15 0-.21 0-.21-.22v-3c0-.43.05-1.24.09-1.6h-.07a17.16 17.16 0 0 1-1.08 2.32l-1.18 2.27a.49.49 0 0 1-.46.26zm6.56-11.9c.19 0 .22.17.22.33a1.7 1.7 0 0 1-.17.7 2.31 2.31 0 0 1-.81 1 3.61 3.61 0 0 1-2.15.62 3.47 3.47 0 0 1-2.11-.62 2.36 2.36 0 0 1-.94-1.51c-.09-.41 0-.53.19-.57l1.41-.24a.33.33 0 0 1 .39.24v.1a1.62 1.62 0 0 0 .33.7 1.14 1.14 0 0 0 1.44 0 1.64 1.64 0 0 0 .33-.7v-.1a.33.33 0 0 1 .38-.26zm6.81 11.65c0 .24 0 .24-.17.24H62.7c-.17 0-.26 0-.26-.22v-5.86h-.52c-.15 0-.24 0-.24-.22v-1.94c0-.21.12-.24.24-.24h3.26c.19 0 .34 0 .34.24v2.68h.62a.78.78 0 0 0 .6-.19 1.41 1.41 0 0 0 .33-.76l.14-.58a2.4 2.4 0 0 1 .55-1.08 2.93 2.93 0 0 1 2.11-.74c.19 0 .38 0 .43.21l.39 1.61c0 .14 0 .31-.17.33l-.31.05a.86.86 0 0 0-.46.22 1.11 1.11 0 0 0-.21.43l-.21.62a1.48 1.48 0 0 1-.36.63 1.36 1.36 0 0 1-.58.33v.05A1.52 1.52 0 0 1 69 23a1.94 1.94 0 0 1 .43.84l.12.46a1.17 1.17 0 0 0 .26.58 1 1 0 0 0 .51.21h.21c.28.05.28.24.24.43L70.46 27c0 .19-.09.26-.52.26a3.25 3.25 0 0 1-2.23-.65 2.55 2.55 0 0 1-.62-1.3l-.16-.79a1.24 1.24 0 0 0-.27-.65.85.85 0 0 0-.62-.19h-.51zm10.15.53c-2.75 0-4.21-1.8-4.21-4.55s1.53-4.51 4.23-4.51 4.17 1.84 4.17 4.55-1.53 4.51-4.19 4.51zm0-7c-.72 0-1.13.51-1.13 2.45s.41 2.42 1.13 2.42 1.15-.53 1.15-2.44-.45-2.4-1.17-2.4zm14.7-1.77c.22 0 .31 0 .33.26l.45 5.8h.45c.15 0 .24 0 .24.22v2c0 .22-.09.22-.24.22h-2.76c-.19 0-.33 0-.33-.26L88.44 22h-.1c-.12.69-.36 1.55-.48 2l-.48 1.67c-.05.19-.1.22-.34.22h-1.47c-.24 0-.29 0-.34-.22l-.52-1.79a14.9 14.9 0 0 1-.46-1.88h-.09l-.07 4.7c0 .26-.14.26-.33.26H81c-.15 0-.24 0-.24-.22v-2c0-.19.09-.22.24-.22h.45l.46-5.8c0-.24.1-.26.33-.26h2.56c.15 0 .29 0 .34.19l.71 2.35a8.87 8.87 0 0 1 .41 1.77h.1a8.6 8.6 0 0 1 .39-1.63l.72-2.46c.05-.17.19-.19.34-.19zm11.47 2.18c0 .19-.09.22-.24.22h-.51v3.67h.51c.19 0 .24.05.24.24v1.94c0 .22-.09.22-.24.22h-3.28c-.17 0-.26 0-.26-.22v-5.81h-1.63v5.8c0 .24 0 .24-.19.24H92.9c-.15 0-.24 0-.24-.22v-1.94c0-.19.05-.24.24-.24h.52v-3.68h-.52c-.15 0-.24 0-.24-.22v-1.94c0-.21.12-.24.24-.24h8.7c.12 0 .24 0 .24.24zm5.06.08V21c0 .76-.05 2.06-.12 2.73a4.33 4.33 0 0 1-1 2.7 3.43 3.43 0 0 1-2.56.89c-.33 0-.36-.15-.41-.34l-.43-1.55a.3.3 0 0 1 .19-.39h.16a1.85 1.85 0 0 0 .89-.36 3.45 3.45 0 0 0 .64-2.47v-1.22h-.5c-.15 0-.24 0-.24-.22v-2.02c0-.21.12-.24.24-.24h7.43c.26 0 .22.1.22.29v5.77h.52c.15 0 .24 0 .24.22v2c0 .22-.09.22-.24.22h-3.35c-.17 0-.26 0-.26-.22v-6zM120.85 26c.09.15.07.21-.12.33a6 6 0 0 1-3.36 1c-2.85 0-4.31-1.68-4.31-4.46s1.58-4.6 4.22-4.6 3.85 1.77 3.85 4.93c0 .26-.1.24-.33.24H116c.1 1.2.58 1.67 1.44 1.67a4 4 0 0 0 2.21-.64c.22-.12.31-.07.41.12zm-2.61-4.43c-.07-1.12-.4-1.44-1.06-1.44s-1 .36-1.17 1.44zm7.59 5.18c0 .24 0 .24-.17.24H123c-.17 0-.26 0-.26-.22v-5.86h-.52c-.15 0-.24 0-.24-.22v-1.94c0-.21.12-.24.24-.24h3.26c.19 0 .34 0 .34.24v2.68h.62a.78.78 0 0 0 .6-.19 1.41 1.41 0 0 0 .33-.76l.14-.58a2.42 2.42 0 0 1 .55-1.08 2.93 2.93 0 0 1 2.11-.74c.19 0 .38 0 .43.21l.4 1.61a.24.24 0 0 1-.17.33l-.31.05a.85.85 0 0 0-.46.22 1.1 1.1 0 0 0-.21.43l-.21.62a1.47 1.47 0 0 1-.36.63 1.35 1.35 0 0 1-.58.33v.05a1.51 1.51 0 0 1 .64.39 1.94 1.94 0 0 1 .43.84l.12.46a1.18 1.18 0 0 0 .26.58 1 1 0 0 0 .52.21h.21c.28.05.28.24.24.43l-.36 1.53c0 .19-.09.26-.52.26a3.26 3.26 0 0 1-2.23-.65 2.56 2.56 0 0 1-.62-1.3l-.15-.79a1.25 1.25 0 0 0-.27-.65.86.86 0 0 0-.62-.19h-.52zM139 26c.09.22.1.28-.05.45a4.81 4.81 0 0 1-3 .86c-2.73 0-4.17-1.73-4.17-4.4s1.61-4.67 4.45-4.67a3.69 3.69 0 0 1 2.58.76.44.44 0 0 1 .14.43v2.13c0 .19 0 .24-.22.24h-2.06c-.17 0-.22-.05-.22-.24v-1h-.19c-.94 0-1.39.6-1.39 2.33s.53 2.18 1.41 2.18a4.76 4.76 0 0 0 1.65-.48c.29-.12.38-.19.5.1zm3.06 1.44a2.15 2.15 0 1 1 2.16-2.16 2.14 2.14 0 0 1-2.16 2.16zm6.01-8.96c.19 0 .24.1.38.48a2.79 2.79 0 0 1 2-.74c2.39 0 3.5 1.82 3.5 4.52 0 3-1.1 4.58-3.67 4.58a3.12 3.12 0 0 1-1.32-.34v1.08h.51c.19 0 .24.05.24.22v2c0 .19-.05.24-.24.24h-4.17c-.19 0-.24-.05-.24-.24v-2c0-.17.05-.22.24-.22h.53v-6.7a2 2 0 0 0-.05-.45h-.6c-.19 0-.24 0-.24-.22v-2c0-.17 0-.24.24-.24zm.86 6.71a2.21 2.21 0 0 0 .88.17c.74 0 1.13-.46 1.13-2.58 0-1.82-.45-2.4-1-2.4a1.62 1.62 0 0 0-1 .41zM162 14.44c.17 0 .19.09.19.22v4.07a2.81 2.81 0 0 1 3.19.45 5.06 5.06 0 0 1 .94 3.4 6.24 6.24 0 0 1-.72 3.47 2.41 2.41 0 0 1-2.27 1.13 3 3 0 0 1-1.15-.21v1.12h.53c.15 0 .24 0 .24.22v2c0 .19-.05.24-.24.24h-4.17c-.19 0-.24-.05-.24-.24v-2c0-.19.09-.22.24-.22h.55V27a2.88 2.88 0 0 1-1.1.21 2.5 2.5 0 0 1-2.37-1.21 6.33 6.33 0 0 1-.7-3.38A4.9 4.9 0 0 1 156 19.2a2.54 2.54 0 0 1 1.89-.77 2.27 2.27 0 0 1 1.17.31v-1.9h-.52c-.15 0-.24 0-.24-.22v-1.94c0-.21.12-.24.24-.24zm-2.7 6.25a1.32 1.32 0 0 0-.75-.24.74.74 0 0 0-.77.51 4.69 4.69 0 0 0-.17 1.68 8.7 8.7 0 0 0 .17 1.85.88.88 0 0 0 .89.69 1.47 1.47 0 0 0 .64-.17zm2.64 4.31a1.94 1.94 0 0 0 .72.17c.5 0 .69-.29.81-.69a9.48 9.48 0 0 0 .17-1.92 4.61 4.61 0 0 0-.17-1.61.69.69 0 0 0-.74-.51 1.43 1.43 0 0 0-.79.24z" fill="#178341"/><path class="cls-1" d="M26.6 33.94l-4.98 7.46h.63l4.97-7.46h-.62zm1.24 0l-4.97 7.46h.62l4.97-7.46h-.62zm1.24 0l-4.97 7.46h.62l4.98-7.46h-.63zm9.95 0l-4.97 7.46h.62l4.97-7.46h-.62zm-14.92 0l-4.97 7.46h.62l4.97-7.46h-.62zm-2.49 0l-4.97 7.46h.62l4.98-7.46h-.63zm3.73 0l-4.97 7.46H21l4.98-7.46h-.63zm8.71 0l-4.98 7.46h.62l4.98-7.46h-.62zm-3.73 0l-4.98 7.46h.63l4.97-7.46h-.62zm6.21 0l-4.97 7.46h.62l4.98-7.46h-.63zm-1.24 0l-4.97 7.46h.62l4.97-7.46h-.62zm-3.73 0L26.6 41.4h.62l4.97-7.46h-.62zm1.24 0l-4.97 7.46h.62l4.98-7.46h-.63zm4.98 0l-4.98 7.46h.63l4.97-7.46h-.62zm-17.41 0l-4.97 7.46h.62L21 33.94h-.62zM3.79 35.51l1.05-1.57h-.62l-.43.64v.93zm6.64-1.57L5.46 41.4h.62l4.97-7.46h-.62zM3.79 41.1l4.78-7.16h-.62l-4.16 6.23v.93zm7.89-7.16L6.7 41.4h.62l4.98-7.46h-.62zm-7.89 5.3l3.53-5.3H6.7l-2.91 4.37v.93zm0-1.87l2.29-3.43h-.62l-1.67 2.5v.93zm5.4-3.43L4.21 41.4h.63l4.97-7.46h-.62zm7.46 0l-4.97 7.46h.62l4.97-7.46h-.62zm1.24 0l-4.97 7.46h.62l4.98-7.46h-.63zm1.25 0l-4.98 7.46h.63l4.97-7.46h-.62zm-4.98 0L9.19 41.4h.62l4.98-7.46h-.63zm1.25 0l-4.98 7.46h.62l4.98-7.46h-.62zm-2.49 0L7.95 41.4h.62l4.97-7.46h-.62zm9.95 0l-4.98 7.46h.62l4.98-7.46h-.62zm41.03 0l-4.98 7.46h.63l4.97-7.46h-.62zm1.24 0l-4.97 7.46h.62l4.98-7.46h-.63zm-2.48 0l-4.98 7.46h.62l4.98-7.46h-.62zm-3.74 0l-4.97 7.46h.62l4.98-7.46h-.63zm2.49 0l-4.97 7.46h.62l4.97-7.46h-.62zm4.98 0l-4.98 7.46h.62l4.98-7.46h-.62zm-6.22 0L55.2 41.4h.62l4.97-7.46h-.62zm8.7 0L63.9 41.4h.62l4.98-7.46h-.63zm2.49 0l-4.97 7.46h.62l4.97-7.46h-.62zm-3.73 0l-4.97 7.46h.62l4.97-7.46h-.62zm6.22 0l-4.98 7.46h.62l4.98-7.46h-.62zm-1.25 0l-4.97 7.46h.62l4.97-7.46h-.62zm-2.48 0l-4.98 7.46h.62l4.98-7.46h-.62zm-12.44 0l-4.97 7.46h.62l4.97-7.46h-.62zm-7.46 0l-4.97 7.46h.62l4.97-7.46h-.62zm-4.97 0l-4.98 7.46h.63l4.97-7.46h-.62zm1.24 0l-4.97 7.46h.62l4.97-7.46h-.62zm-2.48 0l-4.98 7.46h.62l4.98-7.46h-.62zm-2.49 0l-4.98 7.46h.63l4.97-7.46h-.62zm1.24 0l-4.97 7.46h.62l4.97-7.46h-.62zm4.97 0l-4.97 7.46h.62l4.98-7.46h-.63zm3.74 0l-4.98 7.46h.62l4.98-7.46h-.62zm1.24 0l-4.98 7.46h.63l4.97-7.46h-.62zm1.24 0l-4.97 7.46h.62l4.97-7.46h-.62zm1.25 0l-4.98 7.46h.62l4.98-7.46h-.62zm-14.93 0L35.3 41.4h.62l4.98-7.46h-.63zm8.71 0L44 41.4h.63l4.97-7.46h-.62zm7.46 0l-4.97 7.46h.62l4.97-7.46h-.62zm87.04 0l4.98 7.46h-.62l-4.98-7.46h.62zm-1.24 0l4.97 7.46h-.62l-4.97-7.46h.62zm-1.24 0l4.97 7.46h-.62l-4.98-7.46h.63zm-9.95 0l4.97 7.46h-.62l-4.97-7.46h.62zm14.92 0l4.97 7.46h-.62l-4.97-7.46h.62zm2.49 0l4.97 7.46h-.62l-4.97-7.46h.62zm-3.74 0l4.98 7.46h-.62l-4.98-7.46h.62zm-8.7 0L141 41.4h-.63l-4.97-7.46h.62zm3.73 0l4.97 7.46h-.62l-4.97-7.46h.62zm-6.22 0l4.98 7.46h-.62l-4.98-7.46h.62zm1.25 0l4.97 7.46h-.62l-4.97-7.46h.62zm3.73 0l4.97 7.46h-.62l-4.97-7.46h.62zm-1.24 0l4.97 7.46h-.62l-4.98-7.46h.63zm-4.98 0l4.98 7.46h-.63l-4.97-7.46h.62zm17.41 0l4.97 7.46h-.62l-4.97-7.46h.62zm16.59 1.57l-1.05-1.57h.62l.43.64v.93zm-6.64-1.57l4.97 7.46H164l-4.97-7.46h.62zm6.64 7.16l-4.78-7.16h.62l4.16 6.23v.93zm-7.89-7.16l4.98 7.46h-.63l-4.97-7.46h.62zm7.89 5.3l-3.54-5.3h.63l2.91 4.37v.93zm0-1.87L164 33.94h.62l1.67 2.5v.93zm-5.4-3.43l4.97 7.46h-.62l-4.97-7.46h.62zm-7.46 0l4.97 7.46h-.62l-4.97-7.46h.62zm-1.24 0l4.97 7.46h-.62l-4.98-7.46h.63zm-1.25 0l4.98 7.46h-.63l-4.97-7.46h.62zm4.98 0l4.97 7.46h-.62l-4.98-7.46h.63zm-1.25 0l4.98 7.46h-.62l-4.98-7.46h.62zm2.49 0l4.97 7.46h-.62l-4.97-7.46h.62zm-9.95 0l4.98 7.46h-.63l-4.97-7.46h.62zm-41.03 0l4.97 7.46h-.62l-4.97-7.46h.62zm-1.24 0l4.97 7.46h-.62l-4.98-7.46h.63zm2.48 0l4.98 7.46h-.62l-4.98-7.46h.62zm3.73 0l4.98 7.46h-.62l-4.98-7.46h.62zm-2.48 0l4.97 7.46h-.62l-4.97-7.46h.62zm-4.98 0l4.98 7.46h-.62l-4.98-7.46h.62zm6.22 0l4.97 7.46h-.62l-4.97-7.46h.62zm-8.7 0l4.97 7.46h-.62l-4.98-7.46h.63zm-2.49 0l4.97 7.46h-.62l-4.97-7.46h.62zm3.73 0l4.97 7.46h-.62l-4.97-7.46h.62zm-6.22 0l4.98 7.46h-.62l-4.98-7.46h.62zm1.25 0l4.97 7.46h-.62l-4.98-7.46h.63zm2.48 0l4.98 7.46h-.62l-4.98-7.46h.62zm12.44 0l4.97 7.46h-.62l-4.97-7.46h.62zm7.46 0l4.97 7.46h-.62l-4.97-7.46h.62zm4.97 0l4.98 7.46h-.63l-4.97-7.46h.62zm-1.24 0l4.97 7.46h-.62l-4.97-7.46h.62zm2.49 0l4.97 7.46h-.62l-4.98-7.46h.63zm2.48 0l4.97 7.46h-.62l-4.97-7.46h.62zm-1.24 0l4.97 7.46h-.62l-4.97-7.46h.62zm-4.98 0l4.98 7.46h-.62l-4.98-7.46h.62zm-3.73 0l4.98 7.46h-.62l-4.98-7.46h.62zm-1.24 0l4.97 7.46h-.62l-4.97-7.46h.62zm-1.24 0l4.97 7.46h-.62l-4.98-7.46h.63zm-1.25 0l4.98 7.46h-.62l-4.98-7.46h.62zm14.93 0l4.97 7.46h-.62l-4.98-7.46h.63zm-8.71 0l4.98 7.46h-.63l-4.97-7.46h.62zm-7.46 0l4.97 7.46h-.62l-4.97-7.46h.62zM86 45.29h-.6V47h.6a.79.79 0 0 0 .89-.85.82.82 0 0 0-.89-.86zm11.7.05h-.02l-.13.38-.74 1.86h1.83l-.79-1.86-.15-.38zm-4.2-.05h-.6V47h.6a.79.79 0 0 0 .88-.85.81.81 0 0 0-.88-.86zm13.18-.04c-.71 0-1.44.54-1.44 1.76s.72 1.75 1.44 1.75 1.43-.52 1.43-1.75-.72-1.76-1.43-1.76zm18.11.88a4.48 4.48 0 0 1-.52 2.58h2.08v-3.42h-1.56zm-22.79.95h-.6v1.63h.6c.85 0 1-.46 1-.82s-.16-.81-1-.81zm-45.49.02h-.66v1.61h.62c.34 0 1-.06 1-.81-.01-.51-.41-.8-.96-.8zm.83-1.1c0-.5-.37-.7-.82-.7h-.66v1.48h.65a.75.75 0 0 0 .83-.78zM9.73 47.1h-.66v1.61h.62c.34 0 1-.06 1-.81-.01-.51-.41-.8-.96-.8zm.83-1.1c0-.5-.37-.7-.82-.7h-.67v1.48h.65a.75.75 0 0 0 .84-.78zm24.34-.66h-.02l-.12.38-.74 1.86h1.82l-.79-1.86-.15-.38zm8.36-.09c-.71 0-1.44.54-1.44 1.76s.72 1.75 1.44 1.75 1.44-.53 1.44-1.76-.7-1.75-1.44-1.75zm8.74 0c-.71 0-1.44.54-1.44 1.76s.72 1.75 1.44 1.75 1.43-.52 1.43-1.75-.71-1.76-1.43-1.76zm-27.66 0c-.71 0-1.44.54-1.44 1.76s.72 1.75 1.44 1.75 1.43-.52 1.43-1.75-.72-1.76-1.43-1.76zm112.91 1.85h-.66v1.61h.62c.34 0 1-.06 1-.81-.02-.51-.41-.8-.96-.8zm21.64-.1h-.65v1.74h.76a.86.86 0 0 0 1-.87c-.06-.87-.78-.87-1.11-.87z"/><path class="cls-1" d="M100 41.4l-5-7.46h2.49L95 30.21H75.09l-2.49 3.73h2.49l-5 7.46H3.79v11.2h162.5V41.4zm-81.61 2.72h.4v.47h-.4zm-1.34 0h.4v.47h-.4zM9.74 49H8.69v-4h1.09c.85 0 1.2.47 1.2 1a.92.92 0 0 1-.71.92 1 1 0 0 1 .82 1C11.09 49 9.94 49 9.74 49zm5.82-.11a4.08 4.08 0 0 1-1.13.16 1.89 1.89 0 0 1-1.94-2 2 2 0 0 1 2-2.15 2.88 2.88 0 0 1 1 .16v.35a2.63 2.63 0 0 0-1-.18 1.65 1.65 0 0 0-1.6 1.82 1.58 1.58 0 0 0 1.58 1.69 3 3 0 0 0 1.07-.19zm3.55.11H17v-4h2v.33h-1.6v1.48h1.52v.33h-1.51v1.61h1.71zm5.22 0a1.85 1.85 0 0 1-1.84-2 1.86 1.86 0 1 1 3.7 0 1.85 1.85 0 0 1-1.85 2.09zm6.15 0a2.52 2.52 0 0 1-1.1-.26l.05-.36a2.29 2.29 0 0 0 1 .28c.6 0 1.1-.28 1.1-.78s-.2-.9-1.08-.9H30v-.33h.48c.86 0 1-.51 1-.83s-.4-.67-1-.67a2.52 2.52 0 0 0-1 .23v-.37a2.85 2.85 0 0 1 1-.19c.89 0 1.37.43 1.37 1a.91.91 0 0 1-.67 1A1 1 0 0 1 32 48c0 .77-.8 1.09-1.51 1.09zm6 0L36 47.92h-2.11L33.44 49H33l1.65-4h.5l1.72 4zm3.88-3.75h-1.73V49h-.39v-4h2.09zm2.93 3.8A1.85 1.85 0 0 1 41.41 47a1.86 1.86 0 1 1 3.7 0 1.85 1.85 0 0 1-1.85 2.09zm5.79-3.8h-1.25V49h-.39v-3.71h-1.22V45h2.83zm3 3.8A1.85 1.85 0 0 1 50.16 47a1.86 1.86 0 1 1 3.7 0A1.85 1.85 0 0 1 52 49.09zm4.51 0h-1.12V45h1.09c.85 0 1.2.47 1.2 1a.91.91 0 0 1-.71.92 1 1 0 0 1 .82 1c0 1.08-1.15 1.08-1.35 1.08zM62 49l-2-2.06V49h-.39v-4H60v1.87L61.81 45h.49l-2 1.93L62.52 49zm4 0h-2.08v-4h2v.33h-1.6v1.48h1.52v.33h-1.53v1.61H66zm6.65 0h-.39v-3.5l-.2.39-2 3.18h-.44V45H70v3.5l.23-.42 2-3.15h.44zm6.83 0h-.39v-3.71H77V49h-.4v-4h2.9zm4 0h-2.11v-4h2v.33h-1.6v1.48h1.52v.33h-1.54v1.61h1.71zm2.64-1.73h-.68V49H85v-4h1.1a1.18 1.18 0 1 1 0 2.36zM90.94 49h-2.1v-4h2v.33h-1.6v1.48h1.52v.33h-1.53v1.61h1.71zm2.64-1.73h-.68V49h-.39v-4h1.06a1.18 1.18 0 1 1 0 2.36zM99.25 49l-.47-1.13h-2.09L96.24 49h-.42l1.62-4h.5l1.73 4zm2.84 0H101v-4h2.18v.33h-1.8v1.45h.7c1.2 0 1.33.81 1.33 1.14.04.72-.5 1.08-1.32 1.08zm4.58 0a1.85 1.85 0 0 1-1.84-2 1.86 1.86 0 1 1 3.7 0 1.85 1.85 0 0 1-1.85 2.09zm5.79-3.8h-1.22V49h-.39v-3.71h-1.22V45h2.83zm3.82 3.8l-2-2.06V49h-.39v-4h.39v1.87l1.83-1.87h.49l-2 1.93 2.22 2.07zm4 0h-2.09v-4h2v.33h-1.6v1.48h1.52v.33h-1.52v1.61h1.71zm6.89.89h-.38V49h-3v.89h-.39v-1.18h.34a4.06 4.06 0 0 0 .57-2.63V45h2.33v3.75h.47zm2.58-2.61h-.68V49h-.38v-4h1.06a1.18 1.18 0 1 1 0 2.36zm4.88 1.72h-2.09v-4h2v.33h-1.6v1.48h1.52v.33h-1.52v1.61h1.71zm2.63 0h-1.06v-4h1.09c.85 0 1.2.47 1.2 1a.92.92 0 0 1-.71.92 1 1 0 0 1 .82 1c.01 1.08-1.15 1.08-1.34 1.08zm5.11 0h-2.09v-4h2v.33h-1.6v1.48h1.52v.33h-1.52v1.61h1.71zm4.38-.11a4.07 4.07 0 0 1-1.13.16 1.89 1.89 0 0 1-1.94-2 2 2 0 0 1 2-2.15 2.89 2.89 0 0 1 1 .16v.35a2.64 2.64 0 0 0-1-.18 1.65 1.65 0 0 0-1.6 1.82 1.58 1.58 0 0 0 1.58 1.69 3 3 0 0 0 1.07-.19zm4.48.11h-.39v-3.5l-.2.39-2 3.18h-.44V45h.39v3.5l.23-.42 2-3.15h.44zm4.77 0h-.39v-1.91h-2.12V49h-.38v-4h.38v1.8h2.12V45h.39zm3.11 0h-1.24v-4h.38v1.67h.65c.25 0 1.46 0 1.46 1.2a1.21 1.21 0 0 1-1.27 1.13zm2.3 0H161v-4h.38z"/><path class="cls-1" d="M138.08 46c0-.5-.37-.7-.82-.7h-.67v1.48h.65a.75.75 0 0 0 .84-.78zm-8.37-.71h-.6V47h.6a.79.79 0 0 0 .89-.85.82.82 0 0 0-.89-.86z"/></svg>