<svg id="Слой_1" data-name="Слой 1" xmlns="http://www.w3.org/2000/svg" viewBox="0 0 144.57 49.2"><defs><style>.cls-1{fill:#fff}</style></defs><path class="cls-1" d="M117.36 23a5.33 5.33 0 0 0-1.13-2.37 6.16 6.16 0 0 0-7.87-1.58 6.37 6.37 0 0 0-2.5 2.51 7.23 7.23 0 0 0-.66 1.72c0 .19 0 .24.19.26h11.84c.22 0 .26-.07.21-.27s-.07-.15-.08-.27zm-67.6-3.61a5.83 5.83 0 0 0-6.3-.4A6.13 6.13 0 0 0 40 24.33a6.45 6.45 0 0 0 .6 2.9 6.27 6.27 0 0 0 5 3.69 5.7 5.7 0 0 0 4.56-1.37 6.19 6.19 0 0 0 2.22-5.91 6 6 0 0 0-2.62-4.25zm-23.4 2a2.4 2.4 0 0 0-.64.46c-1 .91-1.92 1.83-2.89 2.75-.23.22-.24.22-.47 0l-1-1-2.12-2a1.14 1.14 0 0 0-1.9.45 1.13 1.13 0 0 0 .3 1.25l.94.9 3.21 3.09a1.07 1.07 0 0 0 1.17.27 1.71 1.71 0 0 0 .54-.35c.89-.84 1.76-1.68 2.64-2.53.48-.46.95-.93 1.43-1.38a1.17 1.17 0 0 0 .37-.84 1.15 1.15 0 0 0-1.58-1.07zm40-2.63a5.87 5.87 0 0 0-5.25.27 6.14 6.14 0 0 0-3.31 4.79 6.38 6.38 0 0 0 3.71 6.59 5.75 5.75 0 0 0 5.32-.13 6.19 6.19 0 0 0 3.41-5.63 6 6 0 0 0-.71-3 6.2 6.2 0 0 0-3.17-2.89z"/><path class="cls-1" d="M136.53 5.73H8a3.42 3.42 0 0 0-3.38 3.42V40A3.42 3.42 0 0 0 8 43.47h128.5A3.42 3.42 0 0 0 140 40V9.15a3.42 3.42 0 0 0-3.47-3.42zM31.48 23.4a10.29 10.29 0 0 1-.3 2.73 8.64 8.64 0 0 1-1.12 2.43 9 9 0 0 1-9.15 3.85A8.35 8.35 0 0 1 17.58 31a9 9 0 0 1-2.81-3 7.76 7.76 0 0 1-1.06-3.7v-6.14a1.58 1.58 0 0 1 1.14-1.43 3.07 3.07 0 0 1 .72-.08h14.1a2.06 2.06 0 0 1 1 .25 1.32 1.32 0 0 1 .77 1.1v1.89c.05 1.19.05 2.35.04 3.51zm21.22 6.3a8.1 8.1 0 0 1-2.17 1.91 8.4 8.4 0 0 1-2.66 1 7.51 7.51 0 0 1-2.89 0 8.56 8.56 0 0 1-2.69-1A9.81 9.81 0 0 1 40 29.85v9.73h-1.88V16.77c0-.1.05-.28.28-.28h1.3c.24 0 .27 0 .27.28v2.56h.09a8.17 8.17 0 0 1 6.42-2.88 7.88 7.88 0 0 1 5.41 2.22 8.16 8.16 0 0 1 .81 11.03zm11.38 3.09a8.16 8.16 0 1 1 8.09-8.13 8.13 8.13 0 0 1-8.09 8.13zm24.38-3.41A7.39 7.39 0 0 1 87 31a7.84 7.84 0 0 1-5.95 1.82 8 8 0 0 1-6.05-3.7 7.73 7.73 0 0 1-1.28-3.73 8.07 8.07 0 0 1 3.18-7.22 8.3 8.3 0 0 1 4-1.62 6.94 6.94 0 0 1 .94 0 7.58 7.58 0 0 1 5 1.74 8.16 8.16 0 0 1 1.32 1.4.68.68 0 0 1 .06.78.91.91 0 0 1-1.51.24l-.76-.71a6 6 0 0 0-2.66-1.5 5.46 5.46 0 0 0-2.3-.11 6.36 6.36 0 0 0-4.58 3.13 6.26 6.26 0 0 0-.85 3 6 6 0 0 0 1.67 4.47 6.16 6.16 0 0 0 7 1.57 6 6 0 0 0 2.5-2 1 1 0 0 1 1.68-.08.74.74 0 0 1 .04.9zm14 3.7l-7.75-7.67a.75.75 0 0 0-.15.09c-.5.49-1 1-1.5 1.47a.77.77 0 0 0-.25.61v4.87c0 .23-.05.28-.28.28H91.2c-.19 0-.26-.09-.26-.27V9.67h1.46c.42 0 .45 0 .45.46v14.31a3 3 0 0 0 0 .32 2.72 2.72 0 0 0 .23-.18L99 18.69c.76-.76 1.53-1.51 2.3-2.27.24-.24.26-.24.49 0l.7.69c.2.2.2.24 0 .44l-1.36 1.36-5 5c-.19.19-.2.23 0 .44l1.32 1.3 4.73 4.72 1.29 1.28c.07.07.12.14.2.24zm16.11-7.6h-13.44c.07.31.11.57.19.82a6.45 6.45 0 0 0 3.06 3.86 6.06 6.06 0 0 0 7.86-1.61v-.06a1 1 0 0 1 1.69-.06.64.64 0 0 1 .07.89 8 8 0 0 1-8.3 3.29 8.11 8.11 0 0 1-3.7-1.85 7.75 7.75 0 0 1-2.39-3.66 8.18 8.18 0 0 1 6.61-10.55 7.78 7.78 0 0 1 4 .44 8.07 8.07 0 0 1 4.35 3.81 8 8 0 0 1 1 3.68c-.03.68-.34 1-1.03 1zm12.28 4.67a6.4 6.4 0 0 1-2.14 2.52 3.7 3.7 0 0 1-1.35.51 4.53 4.53 0 0 1-2.3-.11 3.9 3.9 0 0 1-2.35-2.07 6 6 0 0 1-.56-2.57v-9.69c0-.4 0-.41-.4-.41H120c-.4 0-.41 0-.41-.4v-1c0-.32 0-.4.42-.4h1.71c.37 0 .39 0 .39-.39v-3.56c0-.1.08-.22.23-.22h1.49a.18.18 0 0 1 .2.2v3.41c0 .55 0 .55.54.55H128c.49 0 .49 0 .49.48v.94c0 .31 0 .4-.39.4h-3.6c-.44 0-.45 0-.45.44v8.46a6.73 6.73 0 0 0 .42 2.64 4.48 4.48 0 0 0 .45.86 1.91 1.91 0 0 0 2.54.61 4 4 0 0 0 1.54-1.47c.06-.09.11-.19.17-.28a.94.94 0 0 1 1.57-.07.53.53 0 0 1 .08.62z"/><path class="cls-1" d="M0 0v49.2h144.57V0zm141.72 40a5.19 5.19 0 0 1-5.19 5.19H8A5.19 5.19 0 0 1 2.85 40V9.15A5.19 5.19 0 0 1 8 4h128.5a5.19 5.19 0 0 1 5.19 5.19z"/></svg>