<svg id="Слой_1" data-name="Слой 1" xmlns="http://www.w3.org/2000/svg" viewBox="0 0 49.2 49.2"><defs><style>.cls-1{fill:#fff;fill-rule:evenodd}</style></defs><path class="cls-1" d="M13.75 42.78H35.5V30.12H13.75zm12.67-3.62h-9v-1.79h9zm-9-5.42h14.44v1.79H17.38zm23.52-14.51A1.81 1.81 0 1 0 42.75 21a1.79 1.79 0 0 0-1.81-1.77zM35.49 6.54H13.75v9h21.74z"/><path class="cls-1" d="M0 0v49.19h49.2V0zm46.39 37.29a2.19 2.19 0 0 1 0 .25 2 2 0 0 1 0 .27 1.81 1.81 0 0 1-1.83 1.36h-5.43v7.24h-29v-7.24H4.84a2.57 2.57 0 0 1-.59-.06 1.79 1.79 0 0 1-1.39-1.8V17.52a1.89 1.89 0 0 1 1.93-1.94h5.28V2.9h29.08v12.68h5.37a1.78 1.78 0 0 1 1.82 1.5 2.13 2.13 0 0 1 0 .37q.05 9.93.05 19.84z"/></svg>