<svg id="Слой_1" data-name="Слой 1" xmlns="http://www.w3.org/2000/svg" viewBox="0 0 49.2 49.2"><defs><style>.cls-3{fill:#fff}</style></defs><path d="M10.6 41.22a21.73 21.73 0 0 0 30.53-2.52l-33.24-28a21.73 21.73 0 0 0 2.71 30.52z" fill="#13a64a"/><path d="M38.6 8A21.73 21.73 0 0 0 8 10.61l-.09.11 33.24 28 .09-.11A21.73 21.73 0 0 0 38.6 8z" fill="#72c490"/><path class="cls-3" d="M44.86 24.6A20.26 20.26 0 1 1 24.6 4.34 20.28 20.28 0 0 1 44.86 24.6zm-1.72 0A18.54 18.54 0 1 0 24.6 43.15 18.56 18.56 0 0 0 43.14 24.6z"/><circle cx="22.12" cy="21.67" r="5.06" transform="rotate(-48.3 22.122 21.665)" fill="none"/><path class="cls-3" d="M34.66 30.85l-6.33-5.64a7.14 7.14 0 1 0-2 2.22l6.33 5.64c.37.33 1.12.11 1.67-.51s.67-1.38.33-1.71zm-15.9-5.4A5.06 5.06 0 1 1 25.9 25a5.06 5.06 0 0 1-7.14.45z"/></svg>