<svg id="Слой_1" data-name="Слой 1" xmlns="http://www.w3.org/2000/svg" viewBox="0 0 49.2 49.2"><defs><style>.cls-1{fill:#fff}</style></defs><path class="cls-1" d="M0 0v49.2h49.2V0zm24.6 46.32A21.71 21.71 0 1 1 46.32 24.6 21.74 21.74 0 0 1 24.6 46.32z"/><path class="cls-1" d="M24.6 4.89A19.71 19.71 0 1 0 44.32 24.6 19.74 19.74 0 0 0 24.6 4.89zm9.24 27.23H31.5c-.89 0-1.16-.71-2.75-2.3-1.39-1.34-2-1.52-2.34-1.52s-.61.13-.61.8v2.1c0 .58-.18.91-1.68.91-2.49 0-5.22-1.51-7.16-4.29-2.91-4.08-3.7-7.16-3.7-7.78 0-.35.13-.66.8-.66h2.35c.6 0 .83.26 1.05.91 1.15 3.34 3.08 6.26 3.88 6.26.3 0 .44-.14.44-.89v-3.45c-.09-1.59-.93-1.72-.93-2.29a.57.57 0 0 1 .6-.54h3.69c.5 0 .67.27.67.86v4.65c0 .5.22.67.36.67s.55-.17 1.09-.72A19.63 19.63 0 0 0 30.14 20a1 1 0 0 1 1-.66h2.35c.71 0 .86.37.71.86-.3 1.37-3.16 5.39-3.16 5.39-.25.4-.35.6 0 1s1.07 1 1.62 1.69a10.07 10.07 0 0 1 2 2.75c.19.75-.15 1.09-.82 1.09z"/></svg>