<svg id="Слой_1" data-name="Слой 1" xmlns="http://www.w3.org/2000/svg" viewBox="0 0 151.63 48.07"><defs><style>.cls-1{fill:#003526;}.cls-2{fill:#003525;}.cls-3{fill:#38ad4a;}</style></defs><title>Лого ЛКС_НОВЫЙ С ПЛАШКОЙ-06</title><rect class="cls-1" y="21.68" width="151.62" height="0.58"/><path class="cls-2" d="M76.73,41.26h-.56v1.58h.56a.74.74,0,0,0,.83-.79A.76.76,0,0,0,76.73,41.26Z"/><polygon class="cls-2" points="87.63 41.3 87.61 41.3 87.49 41.66 86.8 43.4 88.5 43.4 87.76 41.66 87.63 41.3"/><path class="cls-2" d="M83.71,41.26h-.56v1.58h.56a.74.74,0,0,0,.83-.79A.76.76,0,0,0,83.71,41.26Z"/><path class="cls-2" d="M96,41.21c-.66,0-1.34.5-1.34,1.64s.67,1.63,1.34,1.63,1.34-.49,1.34-1.63S96.66,41.21,96,41.21Z"/><path class="cls-2" d="M112.9,42a4.18,4.18,0,0,1-.48,2.41h1.94V41.26H112.9Z"/><path class="cls-2" d="M91.66,42.92H91.1v1.52h.55c.79,0,1-.43,1-.77S92.42,42.92,91.66,42.92Z"/><path class="cls-2" d="M49.19,42.94h-.61v1.5h.58c.32,0,.92-.06.92-.76C50.08,43.22,49.71,42.94,49.19,42.94Z"/><path class="cls-2" d="M50,41.91c0-.46-.35-.65-.77-.65h-.62v1.38h.61A.7.7,0,0,0,50,41.91Z"/><path class="cls-2" d="M5.55,42.94H4.93v1.5h.58c.32,0,.92-.06.92-.76C6.43,43.22,6.06,42.94,5.55,42.94Z"/><path class="cls-2" d="M6.32,41.91c0-.46-.35-.65-.77-.65H4.93v1.38h.61A.7.7,0,0,0,6.32,41.91Z"/><polygon class="cls-2" points="29.03 41.3 29.02 41.3 28.89 41.66 28.2 43.4 29.91 43.4 29.17 41.66 29.03 41.3"/><path class="cls-2" d="M36.83,41.21c-.66,0-1.34.5-1.34,1.64s.67,1.63,1.34,1.63,1.34-.49,1.34-1.63S37.5,41.21,36.83,41.21Z"/><path class="cls-2" d="M45,41.21c-.66,0-1.34.5-1.34,1.64s.67,1.63,1.34,1.63,1.34-.49,1.34-1.63S45.66,41.21,45,41.21Z"/><path class="cls-2" d="M19.18,41.21c-.66,0-1.34.5-1.34,1.64s.67,1.63,1.34,1.63,1.34-.49,1.34-1.63S19.84,41.21,19.18,41.21Z"/><path class="cls-2" d="M124.53,42.94h-.61v1.5h.58c.32,0,.92-.06.92-.76C125.41,43.22,125,42.94,124.53,42.94Z"/><path class="cls-2" d="M144.72,42.82h-.6v1.63h.69a.8.8,0,0,0,.9-.81C145.7,42.87,145,42.82,144.72,42.82Z"/><path class="cls-2" d="M0,37.63V48.07H151.62V37.63Zm13.62,2.53H14v.44h-.38Zm-1.25,0h.38v.44h-.38Zm-6.82,4.6h-1V40.95h1c.79,0,1.12.44,1.12,1a.85.85,0,0,1-.66.86v0a.91.91,0,0,1,.77.9C6.81,44.74,5.74,44.76,5.56,44.76Zm5.43-.1a3.8,3.8,0,0,1-1.06.15,1.76,1.76,0,0,1-1.81-1.89,1.82,1.82,0,0,1,1.85-2,2.68,2.68,0,0,1,1,.15l0,.33a2.46,2.46,0,0,0-.91-.16,1.54,1.54,0,0,0-1.5,1.7A1.47,1.47,0,0,0,10,44.49a2.8,2.8,0,0,0,1-.18Zm3.32.1h-2V40.95H14.2v.31H12.71v1.38h1.42v.31H12.71v1.5H14.3Zm4.87,0a1.73,1.73,0,0,1-1.73-1.94,1.74,1.74,0,1,1,3.45,0A1.73,1.73,0,0,1,19.18,44.8Zm5.74,0a2.35,2.35,0,0,1-1-.24l0-.34a2.14,2.14,0,0,0,1,.27c.56,0,1-.27,1-.73s-.19-.84-1-.84h-.46v-.31h.45c.8,0,.9-.47.9-.78s-.37-.62-.89-.62a2.35,2.35,0,0,0-.91.21l0-.34a2.66,2.66,0,0,1,.94-.18c.83,0,1.28.4,1.28.95a.85.85,0,0,1-.62.9h0a.92.92,0,0,1,.75,1C26.32,44.5,25.57,44.8,24.91,44.8Zm5.56,0L30,43.7H28.09l-.42,1.05h-.39l1.51-3.81h.47l1.61,3.81Zm3.62-3.5H32.51v3.5h-.36V40.95h2Zm2.73,3.54a1.73,1.73,0,0,1-1.73-1.94,1.74,1.74,0,1,1,3.45,0A1.73,1.73,0,0,1,36.83,44.8Zm5.4-3.54H41.1v3.5h-.36v-3.5H39.6v-.31h2.64ZM45,44.8a1.73,1.73,0,0,1-1.73-1.94,1.74,1.74,0,1,1,3.45,0A1.73,1.73,0,0,1,45,44.8Zm4.21,0h-1V40.95h1c.79,0,1.12.44,1.12,1a.85.85,0,0,1-.66.86v0a.91.91,0,0,1,.77.9C50.46,44.74,49.38,44.76,49.21,44.76Zm5.09,0-1.91-1.92h0v1.92H52V40.95h.36v1.74h0l1.75-1.74h.46l-1.85,1.8,2.06,2Zm3.77,0h-2V40.95H58v.31H56.47v1.38h1.42v.31H56.47v1.5h1.59Zm6.21,0h-.36V41.89l0-.46h0l-.19.36-1.86,3h-.41V40.95h.36v2.86l0,.46h0l.21-.39,1.84-2.94h.41Zm6.37,0h-.36v-3.5h-2v3.5h-.36V40.95h2.71Zm3.7,0h-2V40.95h1.85v.31H72.75v1.38h1.42v.31H72.75v1.5h1.59Zm2.46-1.61h-.63v1.61h-.36V40.95h1a1.1,1.1,0,1,1,0,2.2Zm4.51,1.61h-2V40.95h1.85v.31H79.72v1.38h1.42v.31H79.72v1.5h1.6Zm2.46-1.61h-.63v1.61h-.36V40.95h1a1.1,1.1,0,1,1,0,2.2Zm5.3,1.61-.44-1.05H86.68l-.42,1.05h-.39l1.51-3.81h.47l1.61,3.81Zm2.65,0h-1V40.95h2v.31H91.1v1.35h.65c1.12,0,1.24.76,1.24,1.07C93,44.38,92.49,44.76,91.73,44.76Zm4.27,0a1.73,1.73,0,0,1-1.73-1.94,1.74,1.74,0,1,1,3.45,0A1.73,1.73,0,0,1,96,44.8Zm5.4-3.54h-1.14v3.5H99.9v-3.5H98.76v-.31h2.64Zm3.56,3.5-1.91-1.92h0v1.92h-.36V40.95H103v1.74h0l1.75-1.74h.46l-1.85,1.8,2.06,2Zm3.77,0h-2V40.95h1.85v.31h-1.49v1.38h1.42v.31h-1.42v1.5h1.59Zm6.43.83h-.36v-.83H112v.83h-.36V44.44H112a3.79,3.79,0,0,0,.53-2.45v-1h2.18v3.5h.44Zm2.41-2.44h-.63v1.61h-.36V40.95h1a1.1,1.1,0,1,1,0,2.2Zm4.51,1.61h-2V40.95H122v.31h-1.49v1.38h1.42v.31h-1.42v1.5h1.6Zm2.46,0h-1V40.95h1c.8,0,1.12.44,1.12,1a.85.85,0,0,1-.66.86v0a.91.91,0,0,1,.77.9C125.8,44.74,124.72,44.76,124.54,44.76Zm4.76,0h-2V40.95h1.85v.31h-1.49v1.38h1.42v.31h-1.42v1.5h1.59Zm4.09-.1a3.8,3.8,0,0,1-1.06.15,1.76,1.76,0,0,1-1.81-1.89,1.82,1.82,0,0,1,1.85-2,2.7,2.7,0,0,1,1,.15l0,.33a2.46,2.46,0,0,0-.91-.16,1.54,1.54,0,0,0-1.5,1.7,1.47,1.47,0,0,0,1.47,1.57,2.8,2.8,0,0,0,1-.18Zm4.18.1h-.36V41.89l0-.46h0l-.19.36-1.86,3h-.41V40.95h.36v2.86l0,.46h0l.21-.39,1.84-2.94h.41Zm4.44,0h-.36V42.94h-2v1.82h-.36V40.95h.36v1.68h2V40.95H142Zm2.9,0h-1.16V40.95h.36v1.56h.61c.23,0,1.36,0,1.36,1.12A1.13,1.13,0,0,1,144.91,44.76Zm2.14,0h-.36V40.95h.36Z"/><path class="cls-2" d="M125.3,41.91c0-.46-.35-.65-.77-.65h-.62v1.38h.61A.7.7,0,0,0,125.3,41.91Z"/><path class="cls-2" d="M117.5,41.26h-.56v1.58h.56a.74.74,0,0,0,.83-.79A.76.76,0,0,0,117.5,41.26Z"/><path class="cls-2" d="M69.4,13.92l3.21,5.55L71,22.25H63L70.2,9.76l.8,1.39ZM79.82,7,79,8.37l1.6,2.78L74.21,22.25H88.64Z"/><path class="cls-3" d="M75.81,19.47l-1.6,2.78H71l3.21-5.55Zm4.81-2.78L79,19.47l1.6,2.78h3.21ZM75.81,2.82,69.4,13.92,71,16.7l3.21-5.56,3.21,5.55h0l3.21-5.55Z"/><path class="cls-3" d="M24.67,33.18a7.72,7.72,0,0,1-1.23.26,9.8,9.8,0,0,1-1.24.08A4.46,4.46,0,0,1,19,32.45a3.66,3.66,0,0,1-.2-4.88,4.31,4.31,0,0,1,3.36-1.22,10.25,10.25,0,0,1,1.44.09,10,10,0,0,1,1,.22v2a3.85,3.85,0,0,0-1.41-.31,1.75,1.75,0,0,0-1.24.44,1.72,1.72,0,0,0,0,2.36,1.71,1.71,0,0,0,1.24.44,3.35,3.35,0,0,0,.65-.07,4,4,0,0,0,.83-.29Z"/><path class="cls-3" d="M33.45,33.37H30.15V30.84H29v2.52h-3.3V26.51H29v2.37h1.18V26.51h3.29Z"/><path class="cls-3" d="M42.86,29.94a3.24,3.24,0,0,1-1.14,2.62,4.68,4.68,0,0,1-3.11,1,4.7,4.7,0,0,1-3.11-1,3.24,3.24,0,0,1-1.14-2.63,3.24,3.24,0,0,1,1.14-2.62,4.68,4.68,0,0,1,3.11-1,4.7,4.7,0,0,1,3.11,1A3.24,3.24,0,0,1,42.86,29.94Zm-3.53,0a4.33,4.33,0,0,0-.09-1.07q-.16-.55-.63-.55a.63.63,0,0,0-.63.54,4.39,4.39,0,0,0-.09,1.09A4.32,4.32,0,0,0,38,31a.63.63,0,0,0,1.26,0A4.41,4.41,0,0,0,39.33,29.94Z"/><path class="cls-3" d="M61.72,33.37H58.09l-1.88-3h-.05v3H52.92V26.51h3.24v3h.05l1.87-3h3.63l-2.35,3.36Z"/><path class="cls-3" d="M70.61,29.94a3.24,3.24,0,0,1-1.14,2.62,5.51,5.51,0,0,1-6.21,0,3.24,3.24,0,0,1-1.14-2.63,3.24,3.24,0,0,1,1.14-2.62,5.51,5.51,0,0,1,6.21,0A3.24,3.24,0,0,1,70.61,29.94Zm-3.53,0A4.33,4.33,0,0,0,67,28.87a.63.63,0,0,0-1.26,0,4.39,4.39,0,0,0-.09,1.09A4.32,4.32,0,0,0,65.73,31,.63.63,0,0,0,67,31,4.41,4.41,0,0,0,67.08,29.94Z"/><path class="cls-3" d="M16.13,31.62l-.4.1a5.82,5.82,0,0,1-1.14.1,2.08,2.08,0,0,1-1.36-.37.91.91,0,0,1-.31-.72H17.5v-.59a3.55,3.55,0,0,0-1.31-3.06,4.21,4.21,0,0,0-2.56-.73,4.25,4.25,0,0,0-2.86.94,3.15,3.15,0,0,0-1.1,2.52,3.64,3.64,0,0,0,.78,2.39,4.23,4.23,0,0,0,3.46,1.31,13,13,0,0,0,1.53-.1A11.1,11.1,0,0,0,17,33.13h0Zm-3.21-2.42a1.33,1.33,0,0,1,.34-1,.75.75,0,0,1,.51-.18.72.72,0,0,1,.56.25,1.45,1.45,0,0,1,.29,1v.12h-1.7Z"/><path class="cls-3" d="M1.47,26.51v4.32H0l1.46,2.53a2.9,2.9,0,0,0,2.9-2.9v-2H5.49v4.89h3.3V26.51Z"/><path class="cls-3" d="M90.22,33.37H86.93V28.48H85.75v4.89h-3.3V26.51h7.77Z"/><path class="cls-3" d="M117.91,33.37h-3.62l-1.88-3h-.05v3h-3.24V26.51h3.24v3h.05l1.87-3h3.63l-2.35,3.36Z"/><path class="cls-3" d="M125,33.18a7.72,7.72,0,0,1-1.23.26,9.8,9.8,0,0,1-1.24.08,4.46,4.46,0,0,1-3.2-1.07,3.66,3.66,0,0,1-.2-4.88,4.3,4.3,0,0,1,3.36-1.22,10.25,10.25,0,0,1,1.44.09,10,10,0,0,1,1,.22v2a3.85,3.85,0,0,0-1.41-.31,1.75,1.75,0,0,0-1.24.44,1.72,1.72,0,0,0,0,2.36,1.71,1.71,0,0,0,1.24.44,3.35,3.35,0,0,0,.65-.07,4,4,0,0,0,.83-.29Z"/><path class="cls-3" d="M129.18,33.37h-2.85V30.84h2.85Z"/><path class="cls-3" d="M139.2,30.06a3.54,3.54,0,0,1-1,2.68,2.82,2.82,0,0,1-2,.78,2.39,2.39,0,0,1-2.09-1v3.74h-3.29V26.51h3.06v1.16h.05a2.24,2.24,0,0,1,2.17-1.32,3,3,0,0,1,2.05.73A3.83,3.83,0,0,1,139.2,30.06Zm-3.53,0a2.69,2.69,0,0,0-.13-.92.72.72,0,0,0-1.39,0,3.31,3.31,0,0,0,0,1.84.72.72,0,0,0,1.39,0A2.67,2.67,0,0,0,135.67,30Z"/><path class="cls-3" d="M151.62,29.94a3.94,3.94,0,0,1-.92,2.86,2.34,2.34,0,0,1-1.74.72,2.48,2.48,0,0,1-.85-.16,2.34,2.34,0,0,1-.8-.5v3.36H144V32.87a2.33,2.33,0,0,1-.8.5,2.49,2.49,0,0,1-.85.15,2.32,2.32,0,0,1-1.73-.71,4,4,0,0,1-.93-2.88,3.94,3.94,0,0,1,.92-2.86,2.34,2.34,0,0,1,1.74-.72,2.48,2.48,0,0,1,.85.16,2.35,2.35,0,0,1,.8.5V23.79h3.29V27a2.33,2.33,0,0,1,.8-.5,2.5,2.5,0,0,1,.85-.15,2.32,2.32,0,0,1,1.73.71A4,4,0,0,1,151.62,29.94Zm-7.37,1.28V28.66a.81.81,0,0,0-.32-.25.9.9,0,0,0-.29-.05.55.55,0,0,0-.48.36,2.92,2.92,0,0,0-.18,1.22,3.86,3.86,0,0,0,.1,1q.16.55.56.55a.89.89,0,0,0,.29-.05A.8.8,0,0,0,144.25,31.22Zm4.13-1.28a3.87,3.87,0,0,0-.1-1q-.16-.55-.56-.55a.89.89,0,0,0-.29.05.81.81,0,0,0-.32.25v2.56a.8.8,0,0,0,.32.25.89.89,0,0,0,.29.05.55.55,0,0,0,.48-.36A2.91,2.91,0,0,0,148.38,29.94Z"/><path class="cls-3" d="M106.47,31.72a5.82,5.82,0,0,1-1.14.1,2.08,2.08,0,0,1-1.36-.37.91.91,0,0,1-.31-.72h4.58v-.59a3.55,3.55,0,0,0-1.31-3.06,4.84,4.84,0,0,0-5.43.21,3.16,3.16,0,0,0-1.1,2.52,3.64,3.64,0,0,0,.78,2.39,4.23,4.23,0,0,0,3.46,1.31,13,13,0,0,0,1.53-.1,11.1,11.1,0,0,0,1.56-.29l-.87-1.51Zm-2.81-2.51a1.33,1.33,0,0,1,.34-1,.75.75,0,0,1,.51-.18.72.72,0,0,1,.56.25,1.45,1.45,0,0,1,.29,1v.12h-1.7Z"/><path class="cls-3" d="M92.21,26.51v4.32H90.75l1.46,2.53a2.9,2.9,0,0,0,2.9-2.9v-2h1.12v4.89h3.3V26.51Z"/><polygon class="cls-3" points="51.61 33.37 48.99 33.37 48.99 29.53 48.95 29.53 47.22 33.37 44.15 33.37 44.15 26.51 46.77 26.51 46.77 30.43 46.81 30.43 48.55 26.51 51.61 26.51 51.61 33.37"/><path class="cls-3" d="M45.72,24.61a1.51,1.51,0,0,0,.61.76,3.31,3.31,0,0,0,3.1,0,1.5,1.5,0,0,0,.61-.76Z"/><path class="cls-3" d="M81.15,33.37H78.53V29.08h-.08l-1.23,4.29H75.45l-1.23-4.29h-.08v4.29H71.52V26.51h3.92l.85,3h.08l.85-3h3.92Z"/></svg>