<svg id="Слой_1" data-name="Слой 1" xmlns="http://www.w3.org/2000/svg" viewBox="0 0 151.4 48.07"><defs><style>.cls-1{fill:#178341;}.cls-2{fill:#38ad4a;}</style></defs><title>Новый Лого ЛК-04</title><path class="cls-1" d="M6,42.76v0a.85.85,0,0,0,.66-.86c0-.52-.32-1-1.11-1h-1v3.81h1c.18,0,1.26,0,1.26-1.07A.91.91,0,0,0,6,42.76ZM4.88,41.24H5.5c.42,0,.77.19.77.65a.7.7,0,0,1-.78.72H4.88Zm.58,3.19H4.88v-1.5h.61c.51,0,.88.27.88.74C6.37,44.37,5.78,44.43,5.45,44.43Z"/><rect class="cls-1" x="-0.04" y="21.68" width="151.47" height="0.57"/><path class="cls-1" d="M76.68,40.93h-1v3.81H76V43.13h.63a1.1,1.1,0,1,0,0-2.2Zm-.07,1.89H76V41.24h.56a.76.76,0,0,1,.83.79A.74.74,0,0,1,76.61,42.82Z"/><path class="cls-1" d="M87.72,40.93h-.47l-1.51,3.81h.39l.42-1.05H88.5l.44,1.05h.39Zm-1.06,2.45.69-1.74.12-.36h0l.14.36.74,1.74Z"/><path class="cls-1" d="M83.65,40.93h-1v3.81H83V43.13h.63a1.1,1.1,0,1,0,0-2.2Zm-.07,1.89H83V41.24h.56a.76.76,0,0,1,.82.79A.74.74,0,0,1,83.58,42.82Z"/><path class="cls-1" d="M95.86,40.89a1.75,1.75,0,0,0-1.72,2,1.74,1.74,0,1,0,3.45,0A1.75,1.75,0,0,0,95.86,40.89Zm0,3.58c-.66,0-1.34-.49-1.34-1.63s.67-1.64,1.34-1.64,1.34.5,1.34,1.64S96.52,44.47,95.86,44.47Z"/><path class="cls-1" d="M114.56,44.43v-3.5h-2.18v1a3.79,3.79,0,0,1-.53,2.45h-.32v1.14h.36v-.83h2.75v.83H115V44.43Zm-.36,0h-1.94a4.17,4.17,0,0,0,.48-2.41v-.78h1.46Z"/><path class="cls-1" d="M91.62,42.59H91V41.24h1.67v-.31h-2v3.81h1c.76,0,1.27-.38,1.27-1.08C92.86,43.35,92.73,42.59,91.62,42.59Zm-.1,1.83H91V42.91h.56c.76,0,.95.39.95.76S92.31,44.43,91.52,44.43Z"/><path class="cls-1" d="M49.6,42.76v0a.85.85,0,0,0,.66-.86c0-.52-.32-1-1.11-1h-1v3.81h1c.18,0,1.26,0,1.26-1.07A.91.91,0,0,0,49.6,42.76Zm-1.11-1.52h.62c.42,0,.77.19.77.65a.7.7,0,0,1-.78.72h-.61Zm.58,3.19h-.58v-1.5h.61c.51,0,.88.27.88.74C50,44.37,49.38,44.43,49.06,44.43Z"/><path class="cls-1" d="M29.18,40.93h-.47L27.2,44.74h.39L28,43.69H30l.44,1.05h.39Zm-1.05,2.45.69-1.74.12-.36h0l.14.36.74,1.74Z"/><path class="cls-1" d="M36.75,40.89a1.75,1.75,0,0,0-1.72,2,1.74,1.74,0,1,0,3.45,0A1.75,1.75,0,0,0,36.75,40.89Zm0,3.58c-.66,0-1.34-.49-1.34-1.63s.67-1.64,1.34-1.64,1.34.5,1.34,1.64S37.41,44.47,36.75,44.47Z"/><path class="cls-1" d="M44.9,40.89a1.75,1.75,0,0,0-1.72,2,1.74,1.74,0,1,0,3.45,0A1.75,1.75,0,0,0,44.9,40.89Zm0,3.58c-.66,0-1.34-.49-1.34-1.63s.67-1.64,1.34-1.64,1.34.5,1.34,1.64S45.57,44.47,44.9,44.47Z"/><path class="cls-1" d="M19.11,40.89a1.75,1.75,0,0,0-1.72,2,1.74,1.74,0,1,0,3.45,0A1.75,1.75,0,0,0,19.11,40.89Zm0,3.58c-.66,0-1.34-.49-1.34-1.63s.67-1.64,1.34-1.64,1.34.5,1.34,1.64S19.77,44.47,19.11,44.47Z"/><path class="cls-1" d="M144.54,42.49h-.61V40.93h-.36v3.81h1.15a1.13,1.13,0,0,0,1.17-1.13C145.89,42.49,144.76,42.49,144.54,42.49Zm.08,1.94h-.69V42.8h.6c.31,0,1,.05,1,.82A.8.8,0,0,1,144.61,44.43Z"/><rect class="cls-1" x="13.57" y="40.15" width="0.37" height="0.44"/><rect class="cls-1" x="12.32" y="40.15" width="0.38" height="0.44"/><path class="cls-1" d="M10.93,44.63a3.8,3.8,0,0,1-1.05.15,1.76,1.76,0,0,1-1.81-1.89,1.82,1.82,0,0,1,1.85-2,2.68,2.68,0,0,1,1,.15l0,.33a2.45,2.45,0,0,0-.91-.16,1.53,1.53,0,0,0-1.5,1.7,1.47,1.47,0,0,0,1.47,1.57,2.79,2.79,0,0,0,1-.18Z"/><polygon class="cls-1" points="14.24 44.74 12.29 44.74 12.29 40.93 14.14 40.93 14.14 41.24 12.65 41.24 12.65 42.62 14.07 42.62 14.07 42.93 12.65 42.93 12.65 44.43 14.24 44.43 14.24 44.74"/><path class="cls-1" d="M24.84,44.78a2.35,2.35,0,0,1-1-.24l0-.34a2.14,2.14,0,0,0,1,.26c.55,0,1-.26,1-.73s-.18-.84-1-.84H24.4v-.31h.45c.8,0,.9-.47.9-.78s-.37-.62-.89-.62a2.35,2.35,0,0,0-.91.21l0-.34a2.66,2.66,0,0,1,.94-.18c.83,0,1.28.4,1.28.95a.85.85,0,0,1-.62.9h0a.92.92,0,0,1,.75,1C26.25,44.48,25.5,44.78,24.84,44.78Z"/><polygon class="cls-1" points="34.02 41.24 32.43 41.24 32.43 44.74 32.07 44.74 32.07 40.93 34.02 40.93 34.02 41.24"/><polygon class="cls-1" points="42.15 41.24 41.01 41.24 41.01 44.74 40.65 44.74 40.65 41.24 39.51 41.24 39.51 40.93 42.15 40.93 42.15 41.24"/><polygon class="cls-1" points="54.2 44.74 52.29 42.82 52.28 42.82 52.28 44.74 51.92 44.74 51.92 40.93 52.28 40.93 52.28 42.67 52.29 42.67 54.04 40.93 54.49 40.93 52.65 42.73 54.7 44.74 54.2 44.74"/><polygon class="cls-1" points="57.96 44.74 56.01 44.74 56.01 40.93 57.86 40.93 57.86 41.24 56.37 41.24 56.37 42.62 57.78 42.62 57.78 42.93 56.37 42.93 56.37 44.43 57.96 44.43 57.96 44.74"/><polygon class="cls-1" points="64.16 44.74 63.8 44.74 63.8 41.88 63.82 41.41 63.81 41.41 63.62 41.77 61.76 44.74 61.35 44.74 61.35 40.93 61.71 40.93 61.71 43.79 61.69 44.26 61.7 44.26 61.91 43.87 63.75 40.93 64.16 40.93 64.16 44.74"/><polygon class="cls-1" points="70.53 44.74 70.17 44.74 70.17 41.24 68.18 41.24 68.18 44.74 67.82 44.74 67.82 40.93 70.53 40.93 70.53 44.74"/><polygon class="cls-1" points="74.22 44.74 72.27 44.74 72.27 40.93 74.12 40.93 74.12 41.24 72.63 41.24 72.63 42.62 74.05 42.62 74.05 42.93 72.63 42.93 72.63 44.43 74.22 44.43 74.22 44.74"/><polygon class="cls-1" points="81.19 44.74 79.24 44.74 79.24 40.93 81.08 40.93 81.08 41.24 79.59 41.24 79.59 42.62 81.01 42.62 81.01 42.93 79.59 42.93 79.59 44.43 81.19 44.43 81.19 44.74"/><polygon class="cls-1" points="101.25 41.24 100.12 41.24 100.12 44.74 99.76 44.74 99.76 41.24 98.62 41.24 98.62 40.93 101.25 40.93 101.25 41.24"/><polygon class="cls-1" points="104.81 44.74 102.91 42.82 102.89 42.82 102.89 44.74 102.53 44.74 102.53 40.93 102.89 40.93 102.89 42.67 102.91 42.67 104.65 40.93 105.11 40.93 103.26 42.73 105.32 44.74 104.81 44.74"/><polygon class="cls-1" points="108.58 44.74 106.63 44.74 106.63 40.93 108.47 40.93 108.47 41.24 106.98 41.24 106.98 42.62 108.4 42.62 108.4 42.93 106.98 42.93 106.98 44.43 108.58 44.43 108.58 44.74"/><polygon class="cls-1" points="121.92 44.74 119.96 44.74 119.96 40.93 121.81 40.93 121.81 41.24 120.32 41.24 120.32 42.62 121.74 42.62 121.74 42.93 120.32 42.93 120.32 44.43 121.92 44.43 121.92 44.74"/><polygon class="cls-1" points="129.13 44.74 127.18 44.74 127.18 40.93 129.03 40.93 129.03 41.24 127.54 41.24 127.54 42.62 128.96 42.62 128.96 42.93 127.54 42.93 127.54 44.43 129.13 44.43 129.13 44.74"/><path class="cls-1" d="M133.21,44.63a3.79,3.79,0,0,1-1.05.15,1.76,1.76,0,0,1-1.81-1.89,1.82,1.82,0,0,1,1.85-2,2.69,2.69,0,0,1,1,.15l0,.33a2.46,2.46,0,0,0-.91-.16,1.53,1.53,0,0,0-1.49,1.7,1.47,1.47,0,0,0,1.47,1.57,2.8,2.8,0,0,0,1-.18Z"/><polygon class="cls-1" points="137.39 44.74 137.03 44.74 137.03 41.88 137.05 41.41 137.03 41.41 136.84 41.77 134.98 44.74 134.57 44.74 134.57 40.93 134.94 40.93 134.94 43.79 134.91 44.26 134.93 44.26 135.14 43.87 136.98 40.93 137.39 40.93 137.39 44.74"/><polygon class="cls-1" points="141.83 44.74 141.47 44.74 141.47 42.92 139.49 42.92 139.49 44.74 139.13 44.74 139.13 40.93 139.49 40.93 139.49 42.61 141.47 42.61 141.47 40.93 141.83 40.93 141.83 44.74"/><rect class="cls-1" x="146.5" y="40.93" width="0.36" height="3.81"/><path class="cls-1" d="M124.86,42.76v0a.85.85,0,0,0,.66-.86c0-.52-.32-1-1.12-1h-1v3.81h1c.18,0,1.26,0,1.26-1.07A.91.91,0,0,0,124.86,42.76Zm-1.11-1.52h.62c.42,0,.77.19.77.65a.7.7,0,0,1-.78.72h-.61Zm.58,3.19h-.58v-1.5h.61c.51,0,.88.27.88.74C125.24,44.37,124.64,44.43,124.32,44.43Z"/><path class="cls-1" d="M117.41,40.93h-1v3.81h.36V43.13h.63a1.1,1.1,0,1,0,0-2.2Zm-.07,1.89h-.56V41.24h.56a.76.76,0,0,1,.83.79A.74.74,0,0,1,117.34,42.82Z"/><path class="cls-1" d="M69.29,13.93l3.2,5.55-1.6,2.77h-8L70.09,9.77l.8,1.39ZM79.69,7l-.8,1.39,1.6,2.77-6.41,11.1H88.5Z"/><path class="cls-2" d="M75.69,19.48l-1.6,2.77h-3.2l3.2-5.55Zm4.8-2.77-1.6,2.77,1.6,2.77h3.2ZM75.69,2.84l-6.41,11.1,1.6,2.77,3.2-5.55,3.2,5.55h0l3.2-5.55Z"/><path class="cls-2" d="M24.6,33.18a7.71,7.71,0,0,1-1.23.26,9.79,9.79,0,0,1-1.24.08,4.46,4.46,0,0,1-3.2-1.07,3.66,3.66,0,0,1-.2-4.87,4.3,4.3,0,0,1,3.36-1.21,10.24,10.24,0,0,1,1.44.09,10,10,0,0,1,1,.22v2a3.85,3.85,0,0,0-1.41-.31,1.75,1.75,0,0,0-1.23.44,1.72,1.72,0,0,0,0,2.36,1.7,1.7,0,0,0,1.24.44,3.34,3.34,0,0,0,.65-.07,4,4,0,0,0,.83-.29Z"/><path class="cls-2" d="M33.37,33.36H30.08V30.84H28.9v2.52H25.61V26.51H28.9v2.36h1.18V26.51h3.29Z"/><path class="cls-2" d="M42.77,29.94a3.24,3.24,0,0,1-1.14,2.62,4.67,4.67,0,0,1-3.1,1,4.69,4.69,0,0,1-3.1-1,3.23,3.23,0,0,1-1.14-2.63,3.24,3.24,0,0,1,1.14-2.62,4.67,4.67,0,0,1,3.1-1,4.69,4.69,0,0,1,3.1,1A3.23,3.23,0,0,1,42.77,29.94Zm-3.53,0a4.33,4.33,0,0,0-.09-1.07q-.16-.55-.63-.55a.63.63,0,0,0-.63.54,4.39,4.39,0,0,0-.09,1.08A4.31,4.31,0,0,0,37.9,31a.63.63,0,0,0,1.25,0A4.41,4.41,0,0,0,39.25,29.94Z"/><path class="cls-2" d="M61.61,33.36H58l-1.88-3h-.05v3H52.82V26.51h3.24v3h.05l1.87-3h3.63l-2.35,3.36Z"/><path class="cls-2" d="M70.49,29.94a3.24,3.24,0,0,1-1.14,2.62,5.51,5.51,0,0,1-6.2,0A3.23,3.23,0,0,1,62,29.94a3.24,3.24,0,0,1,1.14-2.62,5.51,5.51,0,0,1,6.2,0A3.24,3.24,0,0,1,70.49,29.94Zm-3.53,0a4.33,4.33,0,0,0-.09-1.07.63.63,0,0,0-1.25,0,4.39,4.39,0,0,0-.09,1.08A4.31,4.31,0,0,0,65.62,31a.63.63,0,0,0,1.25,0A4.4,4.4,0,0,0,67,29.94Z"/><path class="cls-2" d="M16.07,31.62l-.4.1a5.81,5.81,0,0,1-1.14.1,2.07,2.07,0,0,1-1.36-.37.91.91,0,0,1-.31-.72h4.57v-.59a3.55,3.55,0,0,0-1.31-3.06,4.21,4.21,0,0,0-2.56-.73,4.24,4.24,0,0,0-2.86.94,3.15,3.15,0,0,0-1.1,2.52,3.64,3.64,0,0,0,.78,2.39,4.23,4.23,0,0,0,3.46,1.31,13,13,0,0,0,1.53-.1,11.09,11.09,0,0,0,1.55-.29h0ZM12.86,29.2a1.32,1.32,0,0,1,.34-1,.75.75,0,0,1,.51-.18.72.72,0,0,1,.56.25,1.45,1.45,0,0,1,.29,1v.12h-1.7Z"/><path class="cls-2" d="M1.42,26.51v4.31H0l1.46,2.53a2.9,2.9,0,0,0,2.9-2.9v-2H5.44v4.89H8.73V26.51Z"/><path class="cls-2" d="M90.08,33.36H86.79V28.47H85.62v4.89H82.33V26.51h7.76Z"/><path class="cls-2" d="M117.75,33.36h-3.62l-1.88-3h-.05v3H109V26.51h3.24v3h.05l1.87-3h3.63l-2.35,3.36Z"/><path class="cls-2" d="M124.83,33.18a7.71,7.71,0,0,1-1.23.26,9.79,9.79,0,0,1-1.24.08,4.46,4.46,0,0,1-3.2-1.07,3.66,3.66,0,0,1-.2-4.87,4.3,4.3,0,0,1,3.36-1.21,10.24,10.24,0,0,1,1.44.09,10,10,0,0,1,1,.22v2a3.85,3.85,0,0,0-1.41-.31,1.75,1.75,0,0,0-1.23.44,1.72,1.72,0,0,0,0,2.36,1.7,1.7,0,0,0,1.24.44,3.34,3.34,0,0,0,.65-.07,4,4,0,0,0,.83-.29Z"/><path class="cls-2" d="M129,33.36h-2.85V30.84H129Z"/><path class="cls-2" d="M139,30.05a3.54,3.54,0,0,1-1,2.68,2.81,2.81,0,0,1-2,.78,2.39,2.39,0,0,1-2.09-1v3.74h-3.29V26.51h3.06v1.16h.05a2.24,2.24,0,0,1,2.17-1.32,2.94,2.94,0,0,1,2.05.73A3.83,3.83,0,0,1,139,30.05Zm-3.53,0a2.69,2.69,0,0,0-.13-.91.72.72,0,0,0-1.38,0,3.31,3.31,0,0,0,0,1.84.72.72,0,0,0,1.38,0A2.67,2.67,0,0,0,135.49,30Z"/><path class="cls-2" d="M151.43,29.94a3.93,3.93,0,0,1-.91,2.86,2.34,2.34,0,0,1-1.74.72,2.47,2.47,0,0,1-.85-.16,2.34,2.34,0,0,1-.8-.5v3.36h-3.29V32.86a2.32,2.32,0,0,1-.8.5,2.49,2.49,0,0,1-.85.15,2.32,2.32,0,0,1-1.72-.71,3.94,3.94,0,0,1-.93-2.87,3.93,3.93,0,0,1,.91-2.86,2.34,2.34,0,0,1,1.74-.72,2.47,2.47,0,0,1,.85.16,2.35,2.35,0,0,1,.8.5V23.8h3.29V27a2.33,2.33,0,0,1,.8-.5,2.5,2.5,0,0,1,.85-.15,2.32,2.32,0,0,1,1.72.71A4,4,0,0,1,151.43,29.94Zm-7.37,1.28V28.66a.81.81,0,0,0-.32-.25.89.89,0,0,0-.29-.05.55.55,0,0,0-.48.36,2.92,2.92,0,0,0-.18,1.22,3.85,3.85,0,0,0,.1,1q.16.55.56.55a.89.89,0,0,0,.29-.05A.8.8,0,0,0,144.06,31.22Zm4.13-1.28a3.87,3.87,0,0,0-.1-1q-.16-.55-.56-.55a.89.89,0,0,0-.29.05.81.81,0,0,0-.32.25v2.56a.8.8,0,0,0,.32.25.88.88,0,0,0,.29.05.55.55,0,0,0,.48-.36A2.91,2.91,0,0,0,148.19,29.94Z"/><path class="cls-2" d="M106.32,31.71a5.81,5.81,0,0,1-1.14.1,2.07,2.07,0,0,1-1.36-.37.91.91,0,0,1-.31-.72h4.57v-.59a3.55,3.55,0,0,0-1.31-3.06,4.83,4.83,0,0,0-5.42.21,3.15,3.15,0,0,0-1.1,2.52,3.64,3.64,0,0,0,.78,2.39,4.22,4.22,0,0,0,3.46,1.31,13,13,0,0,0,1.53-.1,11.09,11.09,0,0,0,1.55-.29l-.87-1.51Zm-2.81-2.51a1.32,1.32,0,0,1,.34-1,.75.75,0,0,1,.51-.18.72.72,0,0,1,.56.25,1.45,1.45,0,0,1,.29,1v.12h-1.7Z"/><path class="cls-2" d="M92.07,26.51v4.31H90.61l1.46,2.53a2.9,2.9,0,0,0,2.9-2.9v-2h1.12v4.89h3.29V26.51Z"/><polygon class="cls-2" points="51.51 33.36 48.89 33.36 48.89 29.53 48.85 29.53 47.12 33.36 44.06 33.36 44.06 26.51 46.68 26.51 46.68 30.43 46.72 30.43 48.45 26.51 51.51 26.51 51.51 33.36"/><path class="cls-2" d="M45.62,24.61a1.51,1.51,0,0,0,.61.76,3.3,3.3,0,0,0,3.1,0,1.5,1.5,0,0,0,.61-.76Z"/><path class="cls-2" d="M81,33.36H78.41V29.07h-.08L77.1,33.36H75.32L74.1,29.07H74v4.28H71.4V26.51h3.92l.85,3h.08l.85-3H81Z"/><rect class="cls-1" y="37.4" width="151.47" height="0.57"/></svg>