<svg id="Слой_1" data-name="Слой 1" xmlns="http://www.w3.org/2000/svg" viewBox="0 0 151.63 48.07"><defs><style>.cls-1{fill:#178341;}.cls-2{fill:#38ad4a;}</style></defs><title>Новый Лого ЛК-04</title><rect class="cls-1" x="-0.05" y="21.71" width="151.69" height="0.58"/><path class="cls-1" d="M76.71,41.3h-.56v1.58h.56a.74.74,0,0,0,.83-.79A.76.76,0,0,0,76.71,41.3Z"/><polygon class="cls-1" points="87.61 41.35 87.6 41.35 87.48 41.7 86.78 43.44 88.49 43.44 87.75 41.7 87.61 41.35"/><path class="cls-1" d="M83.69,41.3h-.56v1.58h.56a.74.74,0,0,0,.83-.79A.76.76,0,0,0,83.69,41.3Z"/><path class="cls-1" d="M96,41.26c-.66,0-1.34.5-1.34,1.64s.68,1.63,1.34,1.63,1.34-.49,1.34-1.63S96.66,41.26,96,41.26Z"/><path class="cls-1" d="M112.9,42.08a4.18,4.18,0,0,1-.48,2.41h1.94V41.3H112.9Z"/><path class="cls-1" d="M91.65,43h-.56v1.52h.55c.79,0,1-.43,1-.77S92.41,43,91.65,43Z"/><path class="cls-1" d="M49.16,43h-.62v1.5h.58c.32,0,.92-.06.92-.76C50,43.26,49.68,43,49.16,43Z"/><path class="cls-1" d="M49.94,42c0-.46-.35-.65-.77-.65h-.62v1.38h.61A.7.7,0,0,0,49.94,42Z"/><path class="cls-1" d="M5.5,43H4.88v1.5h.58c.32,0,.92-.06.92-.76C6.38,43.26,6,43,5.5,43Z"/><path class="cls-1" d="M6.27,42c0-.46-.35-.65-.77-.65H4.88v1.38h.61A.7.7,0,0,0,6.27,42Z"/><polygon class="cls-1" points="28.99 41.35 28.98 41.35 28.86 41.7 28.16 43.44 29.87 43.44 29.13 41.7 28.99 41.35"/><path class="cls-1" d="M36.8,41.26c-.66,0-1.34.5-1.34,1.64s.68,1.63,1.34,1.63,1.34-.49,1.34-1.63S37.46,41.26,36.8,41.26Z"/><path class="cls-1" d="M45,41.26c-.66,0-1.34.5-1.34,1.64s.68,1.63,1.34,1.63S46.3,44,46.3,42.9,45.63,41.26,45,41.26Z"/><path class="cls-1" d="M19.13,41.26c-.66,0-1.34.5-1.34,1.64s.68,1.63,1.34,1.63,1.34-.49,1.34-1.63S19.8,41.26,19.13,41.26Z"/><path class="cls-1" d="M124.53,43h-.61v1.5h.58c.32,0,.92-.06.92-.76C125.42,43.26,125,43,124.53,43Z"/><path class="cls-1" d="M144.73,42.86h-.6v1.63h.69a.8.8,0,0,0,.9-.81C145.71,42.92,145,42.86,144.73,42.86Z"/><path class="cls-1" d="M0,37.67V48.12H151.64V37.67Zm13.63,2.53H14v.44h-.38Zm-1.25,0h.38v.44h-.38ZM5.51,44.8h-1V41h1c.79,0,1.12.44,1.12,1a.85.85,0,0,1-.66.86v0a.91.91,0,0,1,.77.9C6.76,44.79,5.69,44.8,5.51,44.8Zm5.43-.1a3.8,3.8,0,0,1-1.06.15A1.76,1.76,0,0,1,8.07,43a1.82,1.82,0,0,1,1.85-2,2.69,2.69,0,0,1,1,.15l0,.33a2.46,2.46,0,0,0-.91-.16A1.54,1.54,0,0,0,8.46,43a1.47,1.47,0,0,0,1.48,1.57,2.8,2.8,0,0,0,1-.18Zm3.32.1h-2V41h1.85v.31H12.66v1.38h1.42V43H12.66v1.5h1.6Zm4.88,0A1.73,1.73,0,0,1,17.4,42.9a1.74,1.74,0,1,1,3.45,0A1.73,1.73,0,0,1,19.13,44.85Zm5.74,0a2.35,2.35,0,0,1-1-.24l0-.34a2.14,2.14,0,0,0,1,.27c.56,0,1-.27,1-.73s-.19-.84-1-.84h-.46v-.31h.45c.8,0,.9-.47.9-.78s-.37-.62-.89-.62a2.35,2.35,0,0,0-.92.21l0-.34a2.66,2.66,0,0,1,.94-.18c.83,0,1.28.4,1.28.95a.85.85,0,0,1-.62.9h0a.92.92,0,0,1,.75,1C26.28,44.55,25.53,44.85,24.87,44.85Zm5.57,0L30,43.75H28l-.42,1.05h-.39L28.75,41h.47l1.61,3.81Zm3.62-3.5h-1.6v3.5h-.36V41h2Zm2.73,3.55a1.73,1.73,0,0,1-1.73-1.95,1.74,1.74,0,1,1,3.45,0A1.73,1.73,0,0,1,36.8,44.85Zm5.4-3.55H41.06v3.5H40.7V41.3H39.56V41H42.2ZM45,44.85a1.73,1.73,0,0,1-1.73-1.95,1.74,1.74,0,1,1,3.45,0A1.73,1.73,0,0,1,45,44.85Zm4.21,0h-1V41h1c.79,0,1.12.44,1.12,1a.85.85,0,0,1-.66.86v0a.91.91,0,0,1,.77.9C50.43,44.79,49.35,44.8,49.17,44.8Zm5.09,0-1.91-1.92h0V44.8H52V41h.36v1.74h0L54.11,41h.46l-1.85,1.8,2.06,2Zm3.77,0h-2V41h1.85v.31H56.44v1.38h1.42V43H56.44v1.5H58Zm6.21,0h-.36V41.94l0-.46h0l-.19.36-1.86,3h-.41V41h.36v2.86l0,.46h0l.21-.39L63.84,41h.41Zm6.37,0h-.36V41.3h-2v3.5h-.36V41h2.71Zm3.7,0h-2V41h1.85v.31H72.73v1.38h1.42V43H72.73v1.5h1.6Zm2.46-1.61h-.63V44.8h-.36V41h1a1.1,1.1,0,1,1,0,2.2ZM81.3,44.8h-2V41H81.2v.31H79.7v1.38h1.42V43H79.7v1.5h1.6Zm2.46-1.61h-.63V44.8h-.36V41h1a1.1,1.1,0,1,1,0,2.2Zm5.3,1.61-.44-1.05H86.67l-.42,1.05h-.39L87.37,41h.47l1.61,3.81Zm2.65,0h-1V41h2v.31H91.09v1.35h.65c1.12,0,1.24.76,1.24,1.07C93,44.42,92.48,44.8,91.72,44.8Zm4.28,0a1.73,1.73,0,0,1-1.73-1.95,1.74,1.74,0,1,1,3.45,0A1.73,1.73,0,0,1,96,44.85Zm5.4-3.55h-1.14v3.5H99.9V41.3H98.76V41h2.64ZM105,44.8l-1.91-1.92h0V44.8h-.36V41H103v1.74h0L104.8,41h.46l-1.85,1.8,2.06,2Zm3.77,0h-2V41h1.85v.31h-1.49v1.38h1.42V43h-1.42v1.5h1.59Zm6.43.83h-.36V44.8H112v.83h-.36V44.49H112a3.79,3.79,0,0,0,.53-2.46V41h2.18v3.5h.44Zm2.41-2.44h-.63V44.8h-.36V41h1a1.1,1.1,0,1,1,0,2.2Zm4.52,1.61h-2V41H122v.31h-1.49v1.38h1.42V43h-1.42v1.5h1.6Zm2.46,0h-1V41h1c.8,0,1.12.44,1.12,1a.85.85,0,0,1-.66.86v0a.91.91,0,0,1,.77.9C125.8,44.79,124.72,44.8,124.54,44.8Zm4.77,0h-2V41h1.85v.31h-1.49v1.38h1.42V43h-1.42v1.5h1.59Zm4.09-.1a3.8,3.8,0,0,1-1.06.15A1.76,1.76,0,0,1,130.54,43a1.82,1.82,0,0,1,1.85-2,2.7,2.7,0,0,1,1,.15l0,.33a2.47,2.47,0,0,0-.91-.16,1.54,1.54,0,0,0-1.5,1.7,1.47,1.47,0,0,0,1.48,1.57,2.8,2.8,0,0,0,1-.18Zm4.18.1h-.36V41.94l0-.46h0l-.19.36-1.86,3h-.41V41h.36v2.86l0,.46h0l.21-.39L137.17,41h.41Zm4.45,0h-.36V43h-2V44.8h-.36V41h.36v1.68h2V41H142Zm2.9,0h-1.16V41h.36v1.56h.61c.23,0,1.36,0,1.36,1.12A1.13,1.13,0,0,1,144.92,44.8Zm2.14,0h-.36V41h.36Z"/><path class="cls-1" d="M125.31,42c0-.46-.35-.65-.77-.65h-.62v1.38h.61A.7.7,0,0,0,125.31,42Z"/><path class="cls-1" d="M117.5,41.3h-.56v1.58h.56a.74.74,0,0,0,.83-.79A.76.76,0,0,0,117.5,41.3Z"/><path class="cls-1" d="M69.38,14l3.21,5.55L71,22.29H63l7.22-12.5.8,1.39ZM79.8,7,79,8.4l1.6,2.78L74.19,22.29H88.62Z"/><path class="cls-2" d="M75.8,19.51l-1.6,2.78H71l3.21-5.55Zm4.81-2.78L79,19.51l1.6,2.78h3.21ZM75.8,2.84,69.38,14,71,16.73l3.21-5.56,3.21,5.56h0l3.21-5.55Z"/><path class="cls-2" d="M24.63,33.22a7.72,7.72,0,0,1-1.23.26,9.8,9.8,0,0,1-1.24.08A4.46,4.46,0,0,1,19,32.49a3.66,3.66,0,0,1-.2-4.88,4.31,4.31,0,0,1,3.36-1.22,10.26,10.26,0,0,1,1.44.09,10,10,0,0,1,1,.22v2a3.85,3.85,0,0,0-1.41-.31,1.76,1.76,0,0,0-1.24.44,1.72,1.72,0,0,0,0,2.36,1.71,1.71,0,0,0,1.24.44,3.35,3.35,0,0,0,.65-.07,4,4,0,0,0,.83-.29Z"/><path class="cls-2" d="M33.41,33.41h-3.3V30.88H28.94v2.52h-3.3V26.55h3.3v2.37h1.18V26.55h3.3Z"/><path class="cls-2" d="M42.83,30a3.24,3.24,0,0,1-1.14,2.62,4.68,4.68,0,0,1-3.11,1,4.7,4.7,0,0,1-3.11-1A3.24,3.24,0,0,1,34.33,30a3.24,3.24,0,0,1,1.14-2.62,4.68,4.68,0,0,1,3.11-1,4.7,4.7,0,0,1,3.11,1A3.24,3.24,0,0,1,42.83,30ZM39.3,30a4.34,4.34,0,0,0-.09-1.07q-.16-.55-.63-.55a.63.63,0,0,0-.63.54A4.39,4.39,0,0,0,37.86,30a4.32,4.32,0,0,0,.09,1.07.63.63,0,0,0,1.26,0A4.41,4.41,0,0,0,39.3,30Z"/><path class="cls-2" d="M61.69,33.41H58.07l-1.88-3h-.05v3H52.89V26.55h3.24v3h.05l1.87-3h3.64l-2.35,3.36Z"/><path class="cls-2" d="M70.59,30a3.25,3.25,0,0,1-1.14,2.62,5.52,5.52,0,0,1-6.21,0A3.24,3.24,0,0,1,62.08,30a3.24,3.24,0,0,1,1.14-2.62,5.52,5.52,0,0,1,6.21,0A3.24,3.24,0,0,1,70.59,30Zm-3.53,0A4.33,4.33,0,0,0,67,28.91a.63.63,0,0,0-1.26,0A4.4,4.4,0,0,0,65.62,30a4.32,4.32,0,0,0,.09,1.07.63.63,0,0,0,1.26,0A4.41,4.41,0,0,0,67.05,30Z"/><path class="cls-2" d="M16.08,31.66l-.4.1a5.82,5.82,0,0,1-1.14.1,2.08,2.08,0,0,1-1.36-.37.91.91,0,0,1-.31-.72h4.58v-.59a3.56,3.56,0,0,0-1.31-3.06,4.21,4.21,0,0,0-2.56-.73,4.25,4.25,0,0,0-2.86.94,3.16,3.16,0,0,0-1.1,2.52,3.64,3.64,0,0,0,.78,2.39,4.23,4.23,0,0,0,3.47,1.31,13,13,0,0,0,1.53-.1A11.11,11.11,0,0,0,17,33.17h0Zm-3.21-2.42a1.33,1.33,0,0,1,.34-1,.75.75,0,0,1,.51-.18.72.72,0,0,1,.56.25,1.45,1.45,0,0,1,.29,1v.12h-1.7Z"/><path class="cls-2" d="M1.41,26.55v4.32H0l1.46,2.53a2.9,2.9,0,0,0,2.9-2.9v-2H5.44v4.89h3.3V26.55Z"/><path class="cls-2" d="M90.21,33.41h-3.3V28.52H85.74v4.89h-3.3V26.55h7.77Z"/><path class="cls-2" d="M117.92,33.41h-3.62l-1.88-3h-.05v3h-3.24V26.55h3.24v3h.05l1.87-3h3.64l-2.36,3.36Z"/><path class="cls-2" d="M125,33.22a7.72,7.72,0,0,1-1.23.26,9.8,9.8,0,0,1-1.24.08,4.46,4.46,0,0,1-3.2-1.07,3.66,3.66,0,0,1-.2-4.88,4.31,4.31,0,0,1,3.36-1.22,10.25,10.25,0,0,1,1.44.09,10,10,0,0,1,1,.22v2a3.85,3.85,0,0,0-1.41-.31,1.76,1.76,0,0,0-1.24.44,1.73,1.73,0,0,0,0,2.36,1.71,1.71,0,0,0,1.24.44,3.35,3.35,0,0,0,.65-.07,4,4,0,0,0,.83-.29Z"/><path class="cls-2" d="M129.19,33.41h-2.85V30.88h2.85Z"/><path class="cls-2" d="M139.21,30.1a3.55,3.55,0,0,1-1,2.68,2.82,2.82,0,0,1-2,.78,2.39,2.39,0,0,1-2.09-1v3.74h-3.3V26.55h3.06v1.16h.05a2.24,2.24,0,0,1,2.17-1.32,3,3,0,0,1,2.05.73A3.83,3.83,0,0,1,139.21,30.1Zm-3.53,0a2.69,2.69,0,0,0-.13-.92.72.72,0,0,0-1.39,0,3.31,3.31,0,0,0,0,1.84.72.72,0,0,0,1.39,0A2.67,2.67,0,0,0,135.68,30.07Z"/><path class="cls-2" d="M151.64,30a3.94,3.94,0,0,1-.92,2.86,2.34,2.34,0,0,1-1.74.72,2.48,2.48,0,0,1-.85-.16,2.35,2.35,0,0,1-.8-.5v3.36H144V32.91a2.33,2.33,0,0,1-.8.5,2.49,2.49,0,0,1-.85.15,2.32,2.32,0,0,1-1.73-.71,4,4,0,0,1-.93-2.88,3.94,3.94,0,0,1,.92-2.86,2.34,2.34,0,0,1,1.74-.72,2.48,2.48,0,0,1,.85.16,2.35,2.35,0,0,1,.8.5V23.83h3.3V27a2.33,2.33,0,0,1,.8-.5,2.5,2.5,0,0,1,.85-.15,2.32,2.32,0,0,1,1.73.71A4,4,0,0,1,151.64,30Zm-7.38,1.28V28.7a.81.81,0,0,0-.32-.25.9.9,0,0,0-.29-.05.55.55,0,0,0-.48.36A2.92,2.92,0,0,0,143,30a3.86,3.86,0,0,0,.1,1q.16.55.56.55a.89.89,0,0,0,.29-.05A.8.8,0,0,0,144.26,31.26ZM148.39,30a3.87,3.87,0,0,0-.1-1q-.16-.55-.56-.55a.89.89,0,0,0-.29.05.81.81,0,0,0-.32.25v2.56a.8.8,0,0,0,.32.25.89.89,0,0,0,.29.05.55.55,0,0,0,.48-.36A2.91,2.91,0,0,0,148.39,30Z"/><path class="cls-2" d="M106.47,31.76a5.82,5.82,0,0,1-1.14.1A2.08,2.08,0,0,1,104,31.5a.91.91,0,0,1-.31-.72h4.58v-.59a3.56,3.56,0,0,0-1.31-3.06,4.84,4.84,0,0,0-5.43.21,3.16,3.16,0,0,0-1.1,2.52,3.65,3.65,0,0,0,.79,2.39,4.23,4.23,0,0,0,3.47,1.31,13,13,0,0,0,1.53-.1,11.11,11.11,0,0,0,1.56-.29l-.87-1.51Zm-2.81-2.51a1.33,1.33,0,0,1,.34-1,.75.75,0,0,1,.51-.18.72.72,0,0,1,.56.25,1.45,1.45,0,0,1,.29,1v.12h-1.7Z"/><path class="cls-2" d="M92.2,26.55v4.32H90.73l1.46,2.53a2.9,2.9,0,0,0,2.9-2.9v-2h1.12v4.89h3.3V26.55Z"/><polygon class="cls-2" points="51.58 33.41 48.96 33.41 48.96 29.57 48.92 29.57 47.18 33.41 44.12 33.41 44.12 26.55 46.74 26.55 46.74 30.47 46.78 30.47 48.52 26.55 51.58 26.55 51.58 33.41"/><path class="cls-2" d="M45.69,24.65a1.51,1.51,0,0,0,.61.76,3.31,3.31,0,0,0,3.1,0,1.51,1.51,0,0,0,.61-.76Z"/><path class="cls-2" d="M81.13,33.41H78.51V29.12h-.08l-1.23,4.29H75.43L74.2,29.12h-.08v4.29H71.5V26.55h3.92l.85,3h.08l.85-3h3.92Z"/><rect class="cls-1" x="-0.05" y="37.44" width="151.68" height="0.58"/></svg>